# xmcd
#
# Track frame offsets:
#	150
#	14412
#	25782
#	36737
#	48903
#	61361
#	74510
#	85927
#	98937
#	109718
#	121159
#	133207
#
# Disc length: 1964 seconds
#
# Revision: 1
# Processed by: cddbd v1.5.2PL0 Copyright (c) Steve Scherf et al.
# Submitted via: audiograbber 1.83.01
#
DISCID=a807aa0c
DTITLE=Cliff Nobles - Singles Collection 1968 - 1972
DYEAR=2008
DGENRE=Soul
TTITLE0=The More I Do For You Baby
TTITLE1=This Love Will Last
TTITLE2=The Horse
TTITLE3=Love Is All Right
TTITLE4=Judge Baby, I'm Back
TTITLE5=Horse Fever
TTITLE6=Switch It On
TTITLE7=Burning Desire
TTITLE8=Gettin' Away
TTITLE9=The Camel
TTITLE10=The Horse (stereo, 1972)
TTITLE11=If You Don't
EXTD=
EXTT0=
EXTT1=
EXTT2=
EXTT3=
EXTT4=
EXTT5=
EXTT6=
EXTT7=
EXTT8=
EXTT9=
EXTT10=
EXTT11=
PLAYORDER=
